<svg width="97" height="36" viewBox="0 0 97 36" fill="none" xmlns="http://www.w3.org/2000/svg">
<path d="M21.3667 16.3846L18.6551 11.6526H17.9638V16.3846H14.9329V3.85519H20.1079C21.1002 3.85519 21.9386 4.02655 22.624 4.36926C23.3095 4.71197 23.8235 5.18209 24.1655 5.77817C24.5082 6.37499 24.6796 7.05748 24.6796 7.82564C24.6796 8.73587 24.4284 9.50916 23.9261 10.1477C23.4237 10.7855 22.6943 11.2227 21.7373 11.4585L24.7155 16.3853H21.3667V16.3846ZM17.9638 9.57946H19.8421C20.4448 9.57946 20.8885 9.44619 21.1712 9.18037C21.4546 8.91455 21.5967 8.52204 21.5967 8.00212C21.5967 7.50563 21.4524 7.11606 21.1631 6.83193C20.8732 6.54854 20.4331 6.40647 19.8421 6.40647H17.9638V9.57946Z" fill="#E01F26"/>
<path d="M35.3761 4.48429C36.3391 5.0335 37.0977 5.79508 37.6535 6.77048C38.2086 7.74515 38.4869 8.84724 38.4869 10.076C38.4869 11.3048 38.2064 12.4098 37.6448 13.3896C37.0838 14.3701 36.3215 15.1354 35.3593 15.6846C34.3956 16.2338 33.3294 16.5084 32.1599 16.5084C30.9898 16.5084 29.9236 16.2338 28.9606 15.6846C27.9969 15.1354 27.2353 14.3701 26.6744 13.3896C26.1127 12.4091 25.8323 11.3048 25.8323 10.076C25.8323 8.84724 26.1127 7.74515 26.6744 6.77048C27.2353 5.79508 27.9976 5.0335 28.9606 4.48429C29.9236 3.93434 30.9905 3.65973 32.1599 3.65973C33.3411 3.65973 34.4132 3.93434 35.3761 4.48429ZM29.7939 7.44345C29.2096 8.08786 28.9167 8.96514 28.9167 10.076C28.9167 11.1744 29.2096 12.0488 29.7939 12.6991C30.3783 13.3493 31.1677 13.6737 32.1599 13.6737C33.1405 13.6737 33.9255 13.3493 34.5164 12.6991C35.1074 12.0488 35.4025 11.1744 35.4025 10.076C35.4025 8.97685 35.1103 8.1025 34.5252 7.45297C33.9409 6.80343 33.1515 6.4783 32.1599 6.4783C31.1677 6.47756 30.3783 6.79977 29.7939 7.44345Z" fill="#E01F26"/>
<path d="M43.2182 11.9894V16.3846H40.1873V3.85519H45.0972C46.5852 3.85519 47.7203 4.22427 48.5002 4.96241C49.28 5.70128 49.6703 6.69646 49.6703 7.94867C49.6703 8.72855 49.4961 9.42276 49.1475 10.0313C48.7989 10.6398 48.2812 11.1187 47.5965 11.4666C46.9111 11.8151 46.0778 11.9894 45.0972 11.9894H43.2182ZM46.586 7.94867C46.586 6.84951 45.9774 6.30029 44.7604 6.30029H43.2189V9.56116H44.7604C45.9774 9.56116 46.586 9.02366 46.586 7.94867Z" fill="#E01F26"/>
<path d="M6.50358 11.9894V16.3846H3.47266V3.85519H8.38263C9.87063 3.85519 11.0057 4.22427 11.7856 4.96241C12.5654 5.70128 12.9557 6.69646 12.9557 7.94867C12.9557 8.72855 12.7815 9.42276 12.4329 10.0313C12.0843 10.6398 11.5666 11.1187 10.8819 11.4666C10.1965 11.8151 9.36316 11.9894 8.38263 11.9894H6.50358ZM9.87063 7.94867C9.87063 6.84951 9.2621 6.30029 8.04504 6.30029H6.50358V9.56116H8.04504C9.26283 9.56116 9.87063 9.02366 9.87063 7.94867Z" fill="#E01F26"/>
<path d="M54.1891 6.26514V8.88819H58.4247V11.1744H54.1891V13.9571H58.9563V16.3853H51.1582V3.85519H58.9563V6.26514H54.1891Z" fill="#E01F26"/>
<path d="M67.1082 16.3846L64.3972 11.6526H63.706V16.3846H60.675V3.85519H65.8501C66.8431 3.85519 67.6815 4.02655 68.367 4.36926C69.0517 4.71197 69.5664 5.18209 69.9084 5.77817C70.2504 6.37425 70.4225 7.05748 70.4225 7.82564C70.4225 8.73587 70.1713 9.50916 69.6697 10.1477C69.1674 10.7855 68.438 11.2227 67.4809 11.4585L70.4584 16.3853H67.1082V16.3846ZM63.7052 9.57946H65.5843C66.187 9.57946 66.63 9.44619 66.9134 9.18037C67.1968 8.91455 67.3388 8.52204 67.3388 8.00212C67.3388 7.50563 67.1938 7.11606 66.9046 6.83193C66.6146 6.54854 66.1745 6.40647 65.5843 6.40647H63.7052V9.57946Z" fill="#E01F26"/>
<path d="M80.9498 3.85519V6.26514H77.5469V16.3846H74.4984V6.26514H71.1313V3.85519H80.9498Z" fill="#E01F26"/>
<path d="M93.0544 3.85519L88.7127 12.2201V16.3846H85.6642V12.2201L81.3218 3.85519H84.7957L87.2064 8.95922L89.6164 3.85519H93.0544Z" fill="#E01F26"/>
<path d="M66.5128 21.7911H65.6707V23.0733H66.5128C66.9771 23.0733 67.2129 22.8456 67.2129 22.426C67.2129 22.0438 66.9763 21.7911 66.5128 21.7911ZM66.5128 21.7911H65.6707V23.0733H66.5128C66.9771 23.0733 67.2129 22.8456 67.2129 22.426C67.2129 22.0438 66.9763 21.7911 66.5128 21.7911ZM50.1082 18.487V28.441H88.8826V18.487H50.1082ZM56.2572 21.7223H54.6212V26.5041H52.9165V21.7223H51.2967V20.3632H56.2572V21.7223ZM62.5899 23.9235C62.5899 25.6737 61.3692 26.5605 59.9003 26.5605C58.4189 26.5605 57.3036 25.673 57.3036 23.9235V20.3624H59.0003V23.9235C59.0003 24.5584 59.2895 24.9612 59.9325 24.9612C60.5798 24.9612 60.8808 24.5584 60.8808 23.9235V20.3624H62.5899V23.9235ZM67.0701 26.5034L65.8537 24.2369H65.6707V26.5034H63.9659V20.3624H66.6556C68.1773 20.3624 68.9425 21.2331 68.9425 22.3323C68.9425 23.1341 68.5068 23.8298 67.5958 24.1066L68.9799 26.5034H67.0701ZM73.7851 26.5034L71.8599 23.8093V26.5034H70.1544V20.3624H71.8599V23.0118L73.7646 20.3624H75.7345L73.4798 23.3414L75.848 26.5034H73.7851ZM80.8378 21.7303H78.616V22.7314H80.5734V24.0297H78.616V25.1369H80.8378V26.5041H76.9105V20.3632H80.8378V21.7303ZM85.5376 24.5504V26.5034H83.8204V24.5504L81.6638 20.3632H83.6131L84.6918 22.7314L85.7704 20.3632H87.6956L85.5376 24.5504ZM66.5128 21.7911H65.6707V23.0733H66.5128C66.9771 23.0733 67.2129 22.8456 67.2129 22.426C67.2129 22.0438 66.9763 21.7911 66.5128 21.7911ZM66.5128 21.7911H65.6707V23.0733H66.5128C66.9771 23.0733 67.2129 22.8456 67.2129 22.426C67.2129 22.0438 66.9763 21.7911 66.5128 21.7911ZM66.5128 21.7911H65.6707V23.0733H66.5128C66.9771 23.0733 67.2129 22.8456 67.2129 22.426C67.2129 22.0438 66.9763 21.7911 66.5128 21.7911Z" fill="#E01F26"/>
<path d="M11.431 27.6494L11.4201 30.9439H9.33158L9.35721 28.5772C8.99473 28.6497 8.6176 28.6929 8.22656 28.6929C5.34136 28.6929 2.99219 26.5326 2.99219 23.4731C2.99219 20.4136 5.34136 18.2673 8.22656 18.2673C11.1264 18.2673 13.4316 20.4136 13.4316 23.4731C13.4324 25.257 12.6488 26.7215 11.431 27.6494ZM8.22656 26.4316C9.85077 26.4316 10.9089 25.257 10.9089 23.4739C10.9089 21.6615 9.85077 20.5154 8.22656 20.5154C6.57379 20.5154 5.52955 21.6607 5.52955 23.4739C5.52955 25.257 6.57379 26.4316 8.22656 26.4316Z" fill="#233D7F"/>
<path d="M14.7959 18.413H17.2754V24.5027C17.2754 25.7066 17.87 26.4023 19.0446 26.4023C20.2192 26.4023 20.8424 25.7066 20.8424 24.5027V18.413H23.3219V24.4888C23.3219 27.3015 21.3498 28.6936 19.0007 28.6936C16.6369 28.6936 14.7959 27.3015 14.7959 24.4888V18.413Z" fill="#233D7F"/>
<path d="M31.2972 20.399H27.5413V22.4582H30.8615V24.3724H27.5413V26.6051H31.2972V28.5918H25.0625V18.413H31.2972V20.399Z" fill="#233D7F"/>
<path d="M36.5903 28.6929C34.4008 28.6929 32.6902 27.6054 32.6177 25.5462H35.2568C35.3293 26.329 35.8222 26.7062 36.5186 26.7062C37.2435 26.7062 37.7078 26.3437 37.7078 25.7491C37.7078 23.8642 32.6184 24.8791 32.647 21.2689C32.647 19.3401 34.2272 18.2673 36.3589 18.2673C38.577 18.2673 40.0709 19.3694 40.1727 21.3122H37.4903C37.4471 20.6597 36.9828 20.2679 36.3157 20.2533C35.7211 20.2386 35.2715 20.5433 35.2715 21.1811C35.2715 22.9503 40.303 22.1528 40.303 25.5601C40.3023 27.2722 38.9681 28.6929 36.5903 28.6929Z" fill="#233D7F"/>
<path d="M41.2739 18.413H49.1474V20.3997H46.4504V28.5918H43.9709V20.399H41.2739V18.413Z" fill="#233D7F"/>
<path d="M88.9463 30.5229H9.35718V32.3404H88.9463V30.5229Z" fill="#233D7F"/>
</svg>
